<svg viewBox="0 0 16 16">
	<defs>
		<mask id="myMask">
			<rect x="0" y="0" width="16" height="16" fill="#ffffff"/>
			<path d="
				M 10,15
				L 8,11
				L 6,15
				C 7,14 9,12.5 10.5,12.5
			" stroke="#000000" stroke-width="1" fill="#ffffff" stroke-linecap="round" stroke-linejoin="round"/>
			<path d="
				M 0,9
				C 1,9 1,10 2,10
				C 3,10 3,9 4,9
				C 5,9 5,10 6,10
				C 7,10 7,9 8,9
				C 9,9 9,10 10,10
				C 11,10 11,9 12,9
				C 13,9 13,10 14,10
				C 15,10 15,9 16,9
			" stroke="#000000" stroke-width="1" fill="#ffffff"/>
		</mask>
	</defs>
	<rect x="0" y="6" width="16" height="10" fill="#ffffff" rx="2" ry="2" mask="url(#myMask)"/>
	<path d="
		M 3.5,6
		L 3.5,3
		A 1 1 0 0 1 4,2
		C 3,2 3,1 4,0
		C 5,1 5,2 4,2
		A 1 1 0 0 1 4.5,3
		L 4.5,6
		Z
	" fill="#ffffff"/>
	<path d="
		M 7.5,6
		L 7.5,3
		A 1 1 0 0 1 8,2
		C 7,2 7,1 8,0
		C 9,1 9,2 8,2
		A 1 1 0 0 1 8.5,3
		L 8.5,6
		Z
	" fill="#ffffff"/>
	<path d="
		M 11.5,6
		L 11.5,3
		A 1 1 0 0 1 12,2
		C 11,2 11,1 12,0
		C 13,1 13,2 12,2
		A 1 1 0 0 1 12.5,3
		L 12.5,6
		Z
	" fill="#ffffff"/>
</svg>